<?xml version="1.0" encoding="UTF-8" standalone="no"?>
<!-- Generator: Adobe Illustrator 21.0.0, SVG Export Plug-In . SVG Version: 6.00 Build 0)  -->

<svg
   version="1.1"
   id="Layer_1"
   x="0px"
   y="0px"
   viewBox="0 0 2500 2500"
   xml:space="preserve"
   width="2500"
   height="2500"
   xmlns:xlink="http://www.w3.org/1999/xlink"
   xmlns="http://www.w3.org/2000/svg"
   xmlns:svg="http://www.w3.org/2000/svg"><defs
   id="defs12"><linearGradient
     id="linearGradient22"><stop
       style="stop-color:#fa9632;stop-opacity:1;"
       offset="0.5"
       id="stop21" /><stop
       style="stop-color:#fa9632;stop-opacity:0.1;"
       offset="1"
       id="stop22" /></linearGradient><linearGradient
     id="linearGradient18"><stop
       style="stop-color:#fa9632;stop-opacity:1;"
       offset="0.80000001"
       id="stop18" /><stop
       style="stop-color:#fa9632;stop-opacity:0.1;"
       offset="1"
       id="stop19" /></linearGradient><linearGradient
     id="linearGradient17"><stop
       style="stop-color:#fa9632;stop-opacity:0;"
       offset="0.95135587"
       id="stop16" /><stop
       style="stop-color:#fa9632;stop-opacity:1;"
       offset="1"
       id="stop17" /></linearGradient><linearGradient
     id="linearGradient13"><stop
       style="stop-color:#fa9632;stop-opacity:0;"
       offset="0.89999998"
       id="stop13" /><stop
       style="stop-color:#fa9632;stop-opacity:1;"
       offset="1"
       id="stop14" /></linearGradient><radialGradient
     xlink:href="#linearGradient13"
     id="radialGradient14"
     cx="25"
     cy="25"
     fx="25"
     fy="25"
     r="25"
     gradientUnits="userSpaceOnUse" /><radialGradient
     xlink:href="#linearGradient17"
     id="radialGradient16"
     cx="25"
     cy="25"
     fx="25"
     fy="25"
     r="22.6"
     gradientUnits="userSpaceOnUse" /><linearGradient
     xlink:href="#linearGradient18"
     id="linearGradient19"
     x1="27"
     y1="24.800781"
     x2="27"
     y2="37.400391"
     gradientUnits="userSpaceOnUse" /><linearGradient
     xlink:href="#linearGradient22"
     id="linearGradient21"
     x1="25"
     y1="39.200001"
     x2="25"
     y2="43.799999"
     gradientUnits="userSpaceOnUse" /><linearGradient
     xlink:href="#linearGradient22"
     id="linearGradient24"
     x1="25"
     y1="10.8"
     x2="25"
     y2="6.1999998"
     gradientUnits="userSpaceOnUse" /><linearGradient
     xlink:href="#linearGradient18"
     id="linearGradient26"
     x1="26"
     y1="25.099609"
     x2="26"
     y2="12.5"
     gradientUnits="userSpaceOnUse" /></defs>
<style
   type="text/css"
   id="style1">
	.st0{fill:#FFFFFF;}
</style>
<g
   id="g12">
	<path
   class="st0"
   d="M 25,50 C 11.2,50 0,38.8 0,25 0,11.2 11.2,0 25,0 38.8,0 50,11.2 50,25 50,27.408273 49.658908,29.737364 49.022431,31.941566 46.011738,42.367989 36.391727,50 25,50 Z M 25,1.3 C 11.9,1.3 1.3,11.9 1.3,25 1.3,38.1 11.9,48.7 25,48.7 38.1,48.7 48.7,38.1 48.7,25 48.7,11.9 38.1,1.3 25,1.3 Z"
   id="path1"
   style="fill:url(#radialGradient14)" />
	<path
   class="st0"
   d="M 25,2.4 C 12.5,2.4 2.4,12.5 2.4,25 2.4,37.5 12.5,47.6 25,47.6 37.5,47.6 47.6,37.5 47.6,25 47.6,12.5 37.5,2.4 25,2.4 Z m 0,44.7 C 12.8,47.1 2.9,37.2 2.9,25 2.9,12.8 12.8,2.9 25,2.9 37.2,2.9 47.1,12.8 47.1,25 47.1,37.2 37.2,47.1 25,47.1 Z"
   id="path2"
   style="fill:url(#radialGradient16)" />
	<path
   class="st0"
   d="m 25,43.8 c 0,0 0,-2.3 2.6,-2.3 0,0 -2.6,0 -2.6,-2.3 0,0 0,2.3 -2.6,2.3 0,-0.1 2.6,-0.1 2.6,2.3 z"
   id="path3"
   style="fill:url(#linearGradient21)" />
	<path
   class="st0"
   d="m 25,6.2 c 0,0 0,2.3 -2.6,2.3 0,0 2.6,0 2.6,2.3 0,0 0,-2.3 2.6,-2.3 0,0.1 -2.6,0.1 -2.6,-2.3 z"
   id="path4"
   style="fill:url(#linearGradient24)" />
	<path
   id="path5"
   class="st0"
   d="M 9.8007812,24.800781 C 9.8007812,26.10078 9,26.099609 9,26.099609 c -0.2999997,0 -0.3007813,0.300782 -0.3007812,0.300782 v 3.90039 c 0,0 0.00117,0.798828 -1.2988282,0.798828 1.2999987,0 1.2988281,0.800782 1.2988282,0.800782 v 3.90039 c 0,0.3 0.3007812,0.298828 0.3007812,0.298828 0,0 0.8007812,7.83e-4 0.8007812,1.300782 0,-1.299999 0.7988278,-1.300782 0.7988278,-1.300782 0,0 0.300782,0.0012 0.300782,-0.298828 v -3.601562 c 0,-0.3 0.298828,-0.298828 0.298828,-0.298828 H 14 c 0.2,0 0.300781,-0.101172 0.300781,-0.201172 v -0.09961 c 0.1,-0.199999 0.49922,-0.5 1.199219,-0.5 -0.799999,0 -1.099219,-0.3 -1.199219,-0.5 V 30.5 C 14.300781,30.4 14.2,30.300781 14,30.300781 h -2.800781 c 0,0 -0.298828,-7.81e-4 -0.298828,-0.300781 v -1.5 c 0,-0.2 0.199218,-0.199219 0.199218,-0.199219 H 15 c 0,0 0.300781,-7.81e-4 0.300781,-0.300781 0,0 -0.0012,-0.800781 1.298828,-0.800781 -1.299998,0 -1.298828,-0.798828 -1.298828,-0.798828 0,0 -7.81e-4,-0.300782 -0.300781,-0.300782 h -4.400391 c 0,0 -0.7988278,0.0012 -0.7988278,-1.298828 z m 17.1992188,0 c 0,1.299999 -0.800781,1.298828 -0.800781,1.298828 -0.3,0 -0.298828,0.300782 -0.298828,0.300782 v 3.90039 c 0,0 -7.83e-4,0.798828 -1.300782,0.798828 1.299999,0 1.300782,0.800782 1.300782,0.800782 v 3.90039 c 0,0.3 0.298828,0.298828 0.298828,0.298828 0,0 0.800781,7.83e-4 0.800781,1.300782 0,-1.299999 0.800781,-1.300782 0.800781,-1.300782 h 4.398438 c 0,0 0.300781,0.0012 0.300781,-0.298828 C 32.5,35.800781 32.500783,35 33.800781,35 32.500783,35 32.5,34.199219 32.5,34.199219 c 0,-0.3 -0.300781,-0.298828 -0.300781,-0.298828 H 28.300781 C 28.000782,33.900391 28,33.599609 28,33.599609 v -1.5 c 0,-0.299999 0.300781,-0.298828 0.300781,-0.298828 h 2.798828 c 0.2,0 0.300782,-0.101172 0.300782,-0.201172 V 31.5 c 0.1,-0.2 0.399219,-0.5 1.199218,-0.5 -0.799999,0 -1.099218,-0.3 -1.199218,-0.5 v -0.09961 c 0,-0.1 -0.100782,-0.201172 -0.300782,-0.201172 h -2.798828 c 0,0 -0.300781,0.0012 -0.300781,-0.298828 v -1.5 c 0.1,-0.1 0.300781,-0.09961 0.300781,-0.09961 h 3.898438 C 32.199219,28.300781 32.5,28.3 32.5,28 c 0,0 7.83e-4,-0.800781 1.300781,-0.800781 -1.299998,0 -1.300781,-0.798828 -1.300781,-0.798828 0,0 -7.82e-4,-0.300782 -0.300781,-0.300782 h -4.398438 c 0,0 -0.800781,0.0012 -0.800781,-1.298828 z m 8.300781,0 c 0,1.299999 -0.800781,1.298828 -0.800781,1.298828 -0.3,0 -0.300781,0.300782 -0.300781,0.300782 v 3.90039 c 0,0 0.0012,0.798828 -1.298828,0.798828 1.299998,0 1.298828,0.800782 1.298828,0.800782 v 3.90039 c 0,0.3 0.300781,0.298828 0.300781,0.298828 0,0 0.800781,7.83e-4 0.800781,1.300782 0,-1.299999 0.798828,-1.300782 0.798828,-1.300782 H 40.5 c 0,0 0.300781,0.0012 0.300781,-0.298828 0,0 -0.0012,-0.800781 1.298828,-0.800781 -1.299998,0 -1.298828,-0.800781 -1.298828,-0.800781 0,-0.3 -0.300781,-0.298828 -0.300781,-0.298828 h -3.900391 c -0.01446,0 -0.02822,-6.99e-4 -0.04132,-0.002 -0.258568,-0.02627 -0.257507,-0.298752 -0.257507,-0.298752 v -1.5 c 0,-0.299999 0.298828,-0.298828 0.298828,-0.298828 h 2.800782 c 0.199999,0 0.298828,-0.101172 0.298828,-0.201172 V 31.5 c 0.1,-0.2 0.401172,-0.5 1.201172,-0.5 -0.8,0 -1.101172,-0.3 -1.201172,-0.5 v -0.09961 c 0,-0.1 -0.09883,-0.201172 -0.298828,-0.201172 H 36.59961 c 0,0 -0.298828,0.0012 -0.298828,-0.298828 v -1.5 c 0,-0.1 0.298828,-0.09961 0.298828,-0.09961 H 40.5 c 0,0 0.300781,-7.81e-4 0.300781,-0.300781 0,0 -0.0012,-0.800781 1.298828,-0.800781 -1.299998,0 -1.298828,-0.798828 -1.298828,-0.798828 0,0 -7.81e-4,-0.300782 -0.300781,-0.300782 h -4.400391 c 0,0 -0.798828,0.0012 -0.798828,-1.298828 z m -15,0.09961 c 0,1.299998 -0.800781,1.298828 -0.800781,1.298828 h -2.099609 c -0.3,0 -0.300782,0.300781 -0.300782,0.300781 v 3.900391 c 0,0 0.0012,0.798828 -1.298828,0.798828 1.299999,0 1.298828,0.800781 1.298828,0.800781 v 3.900391 c -0.1,0.199999 0.201172,0.199218 0.201172,0.199218 0,0 0.798828,7.83e-4 0.798828,1.300782 0,-1.299999 0.800782,-1.300782 0.800782,-1.300782 0,0 0.298828,0.0012 0.298828,-0.298828 V 33 c 0,0 7.81e-4,-0.300781 0.300781,-0.300781 h 1 c 0,0 0.300391,7.81e-4 0.400391,0.300781 l 1.699218,2.800781 c 0.1,0.3 0.300782,0.298828 0.300782,0.298828 0,0 0.798828,7.83e-4 0.798828,1.300782 0,-0.999999 0.401562,-1.200782 0.601562,-1.300782 H 24.5 c 0.3,0 0.09961,-0.298828 0.09961,-0.298828 l -1.90039,-3.101562 c -0.1,-0.2 0,-0.298828 0,-0.298828 1.699998,-0.3 1.701172,-1.5 1.701172,-1.5 v -0.800782 c 0,0 -0.0012,-0.798828 1.298828,-0.798828 -1.3,0 -1.298829,-0.800781 -1.298829,-0.800781 v -0.800781 c 0,0 -7.84e-4,-1.5 -2.800782,-1.5 h -0.5 c -0.799999,0 -0.798828,-1.298828 -0.798828,-1.298828 z m -0.90039,2.90039 h 1.298828 c 1.499998,0 1.5,0.798828 1.5,0.798828 0,0 1e-6,0.800782 1,0.800782 -0.999999,0 -1,0.798828 -1,0.798828 0,0.999999 -1.5,1 -1.5,1 h -1.298828 c 0,0 -0.300782,0.0012 -0.300782,-0.298828 v -2.800782 c 0,0 7.82e-4,-0.298828 0.300782,-0.298828 z"
   style="fill:url(#linearGradient19)" />
	<path
   id="path6"
   class="st0"
   d="m 17.5,12.400391 c 0,1.299998 -0.39961,1.198828 -0.599609,1.298828 h -0.201172 c -0.3,0 -0.09961,0.300781 -0.09961,0.300781 l 2.5,4.099609 c 0,0 0.0012,0.59961 -1.298828,0.59961 1.299999,0 1.298828,0.601562 1.298828,0.601562 l -2.5,4.09961 c -0.1,0.1 -0.20039,0.298828 0.09961,0.298828 h 0.201172 C 17.10039,23.799219 17.5,23.900001 17.5,25 c 0,-1.299999 0.800781,-1.300781 0.800781,-1.300781 0,0 0.09883,0.0012 0.298828,-0.298828 l 1.701172,-3 c 0,0 0.09922,-0.1 0.199219,0 l 1.699219,3 c 0.1,0.299999 0.300781,0.298828 0.300781,0.298828 0,0 0.800781,7.82e-4 0.800781,1.300781 0,-0.999999 0.39961,-1.200781 0.59961,-1.300781 h 0.199218 c 0.3,0 0.09961,-0.298828 0.09961,-0.298828 l -2.5,-4.09961 c 0,0 7.82e-4,-0.601562 1.300781,-0.601562 -1.299999,0 -1.300781,-0.59961 -1.300781,-0.59961 L 24.199219,14 c 0,0 0.10039,-0.200781 -0.09961,-0.300781 h -0.199218 c -0.2,-0.1 -0.59961,0.0012 -0.59961,-1.298828 0,1.299998 -0.800781,1.298828 -0.800781,1.298828 0,0 -0.100781,7.81e-4 -0.300781,0.300781 L 20.5,17 c -0.1,0.1 -0.199219,0 -0.199219,0 l -1.701172,-3 c -0.1,-0.3 -0.298828,-0.300781 -0.298828,-0.300781 0,0 -0.800781,0.0012 -0.800781,-1.298828 z M 26,12.5 c 0,1.299999 -0.800781,1.300781 -0.800781,1.300781 -0.3,0 -0.298828,0.298828 -0.298828,0.298828 V 18 c 0,0 -7.83e-4,0.800781 -1.300782,0.800781 1.299999,0 1.300782,0.798828 1.300782,0.798828 V 23.5 c 0,0.3 0.298828,0.300781 0.298828,0.300781 0,0 0.800781,-0.0012 0.800781,1.298828 0,-1.299998 0.800781,-1.298828 0.800781,-1.298828 h 4.398438 c 0,0 0.300781,-7.81e-4 0.300781,-0.300781 0,0 7.83e-4,-0.800781 1.300781,-0.800781 -1.299998,0 -1.300781,-0.798828 -1.300781,-0.798828 0,-0.3 -0.300781,-0.300782 -0.300781,-0.300782 H 27.300781 C 27.000782,21.599609 27,21.300781 27,21.300781 v -1.5 C 27,19.500782 27.300781,19.5 27.300781,19.5 h 2.798828 c 0.2,0 0.300782,-0.09922 0.300782,-0.199219 v -0.101562 c 0.1,-0.2 0.499219,-0.5 1.199218,-0.5 -0.799999,0 -1.099218,-0.3 -1.199218,-0.5 v -0.09961 c 0,-0.1 -0.100782,-0.199218 -0.300782,-0.199218 h -2.798828 c 0,0 -0.300781,-7.82e-4 -0.300781,-0.300782 v -1.5 C 27,15.999609 27.300781,16 27.300781,16 h 3.898438 c 0,0 0.300781,-7.82e-4 0.300781,-0.300781 0,0 7.83e-4,-0.798828 1.300781,-0.798828 -1.299998,0 -1.300781,-0.800782 -1.300781,-0.800782 0,0 -7.82e-4,-0.298828 -0.300781,-0.298828 H 26.800781 C 26.800781,13.800781 26,13.799999 26,12.5 Z m 8,0.09961 c 0,1.299999 -0.800781,1.300782 -0.800781,1.300782 -0.3,0 -0.298828,0.298828 -0.298828,0.298828 v 3.90039 c 0,0 -7.83e-4,0.800782 -1.300782,0.800782 1.299999,0 1.300782,0.798828 1.300782,0.798828 v 3.90039 c 0,0.3 0.298828,0.300782 0.298828,0.300782 0,0 0.800781,-0.0012 0.800781,1.298828 0,-1.299999 0.800781,-1.298828 0.800781,-1.298828 0,0 0.298828,-7.82e-4 0.298828,-0.300782 v -5.699218 c 0,0 0.0012,-0.3 0.201172,0 l 3.398438,5.699218 c 0,0 0.100781,0.300782 0.300781,0.300782 0,0 0.100781,-3.91e-4 0.300781,0.09961 0.2,0.1 0.5,0.599219 0.5,1.199219 0,-1.299999 0.798828,-1.298828 0.798828,-1.298828 0.3,0 0.300782,-0.300782 0.300782,-0.300782 v -3.90039 c 0,0 -0.0012,-0.798828 1.298828,-0.798828 -1.299999,-0.1 -1.298828,-0.800782 -1.298828,-0.800782 v -3.90039 c 0,-0.3 -0.300782,-0.298828 -0.300782,-0.298828 0,0 -0.798828,-7.83e-4 -0.798828,-1.300782 0,1.299999 -0.800781,1.300782 -0.800781,1.300782 0,0 -0.300781,-0.0012 -0.300781,0.298828 v 5.701172 c 0,0 7.81e-4,0.199999 -0.199219,0 l -3.400391,-5.701172 c 0,0 -0.09883,-0.298828 -0.298828,-0.298828 0,0 -0.100781,3.9e-4 -0.300781,-0.09961 -0.2,-0.1 -0.5,-0.201173 -0.5,-1.201173 z M 12.400391,12.69922 C 12.400391,13.999217 11.599609,14 11.599609,14 8.7996122,13.9 8.8007813,15.5 8.8007812,15.5 v 2.599609 c 0,0 -7.825e-4,0.800782 -1.3007812,0.800782 1.2999987,0 1.3007813,0.798828 1.3007812,0.798828 v 2.601562 c 0,0 -0.00117,1.5 2.7988278,1.5 0,0 0.800782,-0.0012 0.800782,1.298828 0,-1.299998 0.698828,-1.298828 0.798828,-1.298828 2.799997,0 2.800781,-1.5 2.800781,-1.5 v -2.601562 c 0,0 7.83e-4,-0.798828 1.300781,-0.798828 C 16.000783,18.900391 16,18.099609 16,18.099609 V 15.5 c 0,0 -7.84e-4,-1.5 -2.800781,-1.5 -0.799999,0 -0.798828,-1.300781 -0.798828,-1.300781 z m 0,2.601562 c 1.499998,0 1.5,1.298828 1.5,1.298828 v 1.5 c 0,0 10e-7,0.800782 1,0.800782 -0.999999,0 -1,0.798828 -1,0.798828 v 1.5 c 0,1.299998 -1.5,1.300781 -1.5,1.300781 0,0 -1.5,-7.83e-4 -1.5,-1.300781 v -1.5 c 0,0 -1e-6,-0.798828 -1.0000004,-0.798828 0.9999994,-0.1 1.0000004,-0.800782 1.0000004,-0.800782 v -1.5 c 0,0 10e-7,-1.298828 1.5,-1.298828 z"
   style="fill:url(#linearGradient26)" />
	
	
	
	
	
	
</g>
</svg>
