<?xml version="1.0" encoding="utf-8"?>
<!-- Generator: Adobe Illustrator 21.0.0, SVG Export Plug-In . SVG Version: 6.00 Build 0)  -->
<svg version="1.1" id="Layer_1" xmlns="http://www.w3.org/2000/svg" xmlns:xlink="http://www.w3.org/1999/xlink" x="0px" y="0px"
	 viewBox="0 0 100 100" style="enable-background:new 0 0 100 100;" xml:space="preserve">
<style type="text/css">
	.st0{fill:none;stroke:#FFCC00;stroke-width:0.4166;}
	.st1{fill:none;stroke:#F49632;stroke-width:0.4166;}
	.st2{fill:#F49632;}
</style>
<path class="st0" d="M72.8,20.1c0,1.1-10.1,2.8-22.6,2.8s-22.6-1.7-22.6-2.8c0-1.1,10.1-1.9,22.6-1.9C62.7,18.1,72.8,19,72.8,20.1z"
	/>
<path class="st1" d="M72.8,20.1L66.4,96c0,1.1-7.3,4-16.2,4c-9,0-16.2-3-16.2-4l-6.4-75.9"/>
<g>
	<path class="st2" d="M26.4,9.2c0.2,0.8,9.7,2.7,23.8,2.7S73.8,10,74,9.2l0,0c-0.1-1.9-1.5-9-23.8-9C27.9,0.1,26.5,7.3,26.4,9.2
		C26.4,9.1,26.4,9.2,26.4,9.2z"/>
	<path class="st2" d="M50.2,12.3c-10.7,0-21.5-1.3-23.8-2.6l1,11c0,1.1,10.1,3.7,22.8,3.7S73,21.7,73,20.7l1-11
		C71.7,11.1,60.9,12.3,50.2,12.3z"/>
</g>
<path class="st1" d="M66.9,90.6c0,2-7.6,4-16.7,4c-9.2,0-16.7-2-16.7-4"/>
</svg>
