<?xml version="1.0" encoding="utf-8"?>
<!-- Generator: Adobe Illustrator 21.0.0, SVG Export Plug-In . SVG Version: 6.00 Build 0)  -->
<svg version="1.1" id="Layer_1" xmlns="http://www.w3.org/2000/svg" xmlns:xlink="http://www.w3.org/1999/xlink" x="0px" y="0px"
	 viewBox="0 0 100 100" style="enable-background:new 0 0 100 100;" xml:space="preserve">
<style type="text/css">
	.st0{fill:#F49632;}
</style>
<g>
	<path class="st0" d="M59.8,52.7c0,0.1,0,0.1,0,0.2C59.8,52.8,59.8,52.8,59.8,52.7C59.8,52.8,59.8,52.7,59.8,52.7z"/>
	<path class="st0" d="M48.9,58.1L48.9,58.1c0.7-0.3,1.5-0.7,2.5-1.4C50.5,57.1,49.6,57.5,48.9,58.1z"/>
	<path class="st0" d="M52.5,19.9c-0.3,0.6-0.6,1.1-1.1,1.3c-0.1,0.1-0.3,0.3-0.4,0.3c0.3,1.2,0.4,3.7,0.4,3.9l0.2,3.9h0.1
		c1.3-0.2,3.2-2,4.6-3.4c0.4-0.4,0.7-0.7,1-1c1.2-1.1,1.2-3.2,1.2-4.4c0-0.3,0-0.6,0-0.7c0.1-0.7,0.8-3.4,2.1-5
		c-0.5,0.2-1,0.5-1.4,0.7c-0.7,0.4-1,1.7-1.1,2.2c0,0.1-0.5,1.8-2.1,2.4c-0.1,0-0.2,0-0.3-0.1s-0.1-0.2,0-0.3
		c0.7-0.9,1.1-1.6,1.2-1.9c0.2-0.4,0.9-2.7,1.1-3.6c0.1-0.5-0.2-2.1-0.4-3.1C55.9,14.4,54,17.9,52.5,19.9z"/>
	<path class="st0" d="M40.8,73.1c-0.9-0.2-2-0.2-2.2,0.3c-0.1,0.2-0.2,0.4-0.4,0.6h0.1c0.5,0.1,0.9,0.1,1.3,0.1
		c0.4-0.3,0.8-0.6,1.1-0.8C40.7,73.3,40.8,73.2,40.8,73.1z"/>
	<path class="st0" d="M47.1,52.1c0-3.9-3.6-6.6-6.6-8.2C41.7,46,43.7,48.7,47.1,52.1C47,52.2,47.1,52.2,47.1,52.1z"/>
	<path class="st0" d="M34.5,74.3c0.5,0.9,1.6,1.6,2.6,1.7c0.4,0.1,1.1,0.1,1.4-0.6c0.1-0.2,0.3-0.5,0.6-0.7c-0.3,0-0.5,0-0.8-0.1
		c-0.1,0-0.3-0.1-0.4-0.1c-0.3,0.2-0.7,0.4-1.1,0.5C36.1,75,35.3,74.9,34.5,74.3z"/>
	<path class="st0" d="M49.2,7.7c1.1,4.1,1.6,8,1.5,12.2c0,0.1,0.1,0.5,0.2,1.1c0.1,0,0.2-0.1,0.3-0.1c0.2-0.2,0.5-0.6,0.9-1.1
		c0.2-0.5,0.5-1.1,0.7-1.7c0.4-1,0.8-2,1.4-2.8c1.5-2,2.1-4.7,1.8-6.4c-0.4,0.9-1.1,2.6-1.9,3.3c-0.1,0.1-0.2,0.1-0.3,0
		S53.7,12,53.7,12c0-0.1,0.7-2.3,0.9-2.8L55,6.9h-0.1c-0.1,0-0.3,0.2-0.6,0.9c0,0.1-0.1,0.1-0.2,0.2c-0.1,0-0.2,0-0.2-0.1
		c-0.3-0.4-0.3-1-0.3-1.6c0-0.4,0-0.8-0.1-1.1c0,0,0-0.1-0.1-0.1s-0.5,0.2-0.7,0.5c-0.1,0.1-0.2,0.1-0.2,0.1c-0.1,0-0.1-0.1-0.1-0.2
		c0-0.4-0.9-1-1.4-1.2l-0.1-0.1l-0.6-1.5c0,0-0.3-0.6-1.2-1.2C49,1.5,49,1.4,49,1.3c0-0.3-0.1-0.7-0.5-0.8c-0.1,0-0.2-0.1-0.2-0.2
		s0-0.1-0.1-0.1c-0.2-0.1-0.9,0-1.4,0.1C47.6,1.4,48.4,3.3,49.2,7.7z"/>
	<path class="st0" d="M55,58.7c-1.1,0.5-2.1,0.6-2.6,0.3c-0.8-0.6-3.3-0.9-4.6,0.3c-0.1,0.5-0.3,0.9-0.4,1.4
		c-0.6,2.1-1.2,4.3-1.9,6.6c-0.3,1.1-0.7,2.2-1,3.2c0.9-1.2,2.4-2.6,4.3-2.8c0.7-0.3,1.4-0.5,2.2-0.6c6.6-1.5,6.8-1.5,8.1-6.8
		c0.4-1.6,1.1-4.3,0.8-6.7c-0.2,0.4-0.5,0.8-0.7,1.1C58,57.2,55.8,58.4,55,58.7z"/>
	<path class="st0" d="M62,47.3c-1.2,1.6-3.6,4.5-4.8,5.8c-1.4,1.4-2.7,2.2-3.9,2.8c-0.3,0.2-0.5,0.4-0.7,0.6
		c-0.7,0.5-1.3,0.9-1.9,1.2c0.8-0.1,1.4,0.1,1.9,0.2c1,0.2,1.9,0.4,4-1.2l0,0c1-0.8,1.7-1.5,2.3-2.3c0.3-0.7,0.6-1.6,0.8-2.6
		c0-0.1,0.1-0.2,0.2-0.2c0.1,0,0.2,0,0.2,0.1c0.1,0.2,0.1,0.4,0.2,0.6l0,0l0.4-0.6L62,47.3z"/>
	<path class="st0" d="M38.9,31.8c0,1.1,0.1,2.3,0.6,3.1c0.3,0.5,0.5,0.8,0.8,1.1c0.4,0.5,1,1.2,1.8,2.5c1.3,2.2,4.9,4.8,6.6,5.2l0,0
		c0.2-1.5,1.5-9.9,1.4-13.4c-1.9,0-4.8-0.1-6.6-2.7c-1.1-1.7-3.3-2.1-4-2.3c0.1,1,0.5,4.5,1.5,5.5l0.2,0.2c2.4,2.2,4,3.9,3.9,4.6
		c0,0.2-0.1,0.3-0.3,0.4c-0.3,0.1-0.6,0.1-1.1-0.1C42.3,35.5,39.9,33.3,38.9,31.8z"/>
	<path class="st0" d="M41.1,12.7c0,0-0.1,0.1-0.1,0.4c0.3,1,0.8,1.8,1.5,2.6c0.1,0.1,0.1,0.1,0.2,0.2c0.8,0.8,1.8,1.7,2.8,2.6
		c1.7,1.2,3.4,2,4.3,2.3C50,21,50.2,21,50.3,21c0-0.2,0-0.4,0-0.6l0,0c-0.5-5.7-1-9.7-1.5-12.6c-0.6-2.5-1.4-5-2.4-7.8
		c-0.2,0.1-0.4,0.7-0.5,1c-0.2,0.5-0.3,1-0.5,1.2c-0.4,0.3-1.1,1-1.3,1.2c0,0.4,0,1.7-0.2,2.1c-0.2,0.4-0.3,0.8-0.7,0.8
		c-0.1,0-0.3,0-0.4-0.1l-0.5,1.2c-0.2,0.4-0.2,0.4,0,1c0.1,0.2,0.2,0.5,0.3,0.9c0.2,0.7,0.8,1.2,1.3,1.8c0.6,0.5,1.2,1.2,1.6,2.1
		c0,0.1,0,0.2-0.1,0.3s-0.2,0.1-0.3,0c-0.6-0.3-2.4-2.1-3.2-2.9c0,0.3,0,0.6,0.1,0.7c0.1,0.1,0.2,0.3,0.3,0.6c0.2,0.5,0.6,1.2,1.1,2
		c0.1,0.1,0,0.2,0,0.3s-0.2,0.1-0.2,0.1c-0.5-0.2-1.8-1.3-1.9-1.5C41.2,12.8,41.2,12.7,41.1,12.7z"/>
	<path class="st0" d="M35.7,47.9c0.1,0,1.6,0.8,2.4,2.5c0.3,0.3,0.5,0.7,0.8,1.6c0.3,0.9,0.4,1.7,0.5,2.3c0,0.2,0.1,0.4,0.1,0.5
		c0.8,1.4,1.9,2.2,2.8,2.3c1.2,0.1,2.5,1.5,3,2.2l1.7-6.6l0,0c-3.9-4-6.1-7-7.2-9.3c-0.3-0.1-0.6-0.3-0.8-0.4
		c-1.9-0.8-2.3-1.8-2.7-2.8c-0.2-0.5-0.4-0.9-0.7-1.3c-0.3,2.5,0.4,4.1,2.5,6.5c0,0,0.1,0.1,0.1,0.2c0,0.1,0,0.1-0.1,0.2
		c-1.1,0.7-1.7,0.2-2.7-1.1C34.6,47.3,35.6,47.9,35.7,47.9z"/>
	<path class="st0" d="M45.8,75.8c0.8,0.3,1.4,0.5,1.8,0.8c-0.1-0.5-0.2-0.9-0.5-1.1c-0.3-0.3-0.6-0.4-0.9-0.4c-1,0-1.8-0.3-2.3-1
		c0.2,0.6,0.5,1.3,1.2,1.5C45.3,75.6,45.5,75.7,45.8,75.8z"/>
	<path class="st0" d="M43.5,72.2L43.5,72.2C43.5,72.1,43.5,72.1,43.5,72.2c0.6-1.6,1.1-3.1,1.6-4.6s0.9-3.1,1.4-4.7
		c0.2-0.8,0.5-1.7,0.7-2.6c4.3-16.6,4.2-29.2,3.7-35.7c0,18.4-4.5,35.4-9.4,48.3h0.1c0.1,0,0.1,0.1,0.2,0.2c0,0.1,0,0.2-0.1,0.2
		c-0.1,0.1-0.2,0.1-0.4,0.2c-5.1,13.3-10.4,22-10.9,22.8l0.1,3.7C36.2,90.1,40.4,80.8,43.5,72.2z"/>
	<path class="st0" d="M47.4,50.8c0.4-1.8,1-4.6,1.2-6.6c-3.6-0.6-7-1.3-9.3-7c-0.4,1.2-0.8,2.9,0.8,6C43,44.7,46.7,47.1,47.4,50.8z"
		/>
	<path class="st0" d="M58.5,65c-2,2.8-6.7,3.4-8.4,3.1c-0.2,0-0.4-0.1-0.6-0.1c-0.1,0-0.2,0-0.3,0c-2.1,0.8-3.7,2-4.7,3.6
		c0.8-0.5,1.8-0.5,2.6-0.5c1.1-0.1,2.3-0.1,3.8,0.2c1.3,0.3,3.1-0.5,4.8-2C57.1,67.9,58.2,66.4,58.5,65z"/>
	<path class="st0" d="M54.7,73.3c-2.1,0.6-4.2-0.4-5.6-1.1c-0.6-0.3-1.1-0.6-1.4-0.6l0,0c-0.2,0-0.3,0-0.5,0l0,0
		c-1,0.1-2,0.4-2.8,0.7c-0.1,0.1-0.2,0.2-0.3,0.3c0.6-0.2,1.3-0.3,2-0.3c1.9,0,4.1,0.5,5.5,1.5C52.7,74.6,53.9,73.9,54.7,73.3z"/>
	<path class="st0" d="M44.3,76.5c-0.1-0.2-0.1-0.4-0.1-0.6v-0.1c0,0-0.1,0-0.2,0c0,0,0,0-0.1,0c-0.3-0.2-0.4-0.7-0.5-1.4
		C43.3,75.2,43.5,75.8,44.3,76.5z"/>
	<path class="st0" d="M60,31.7c-0.1,0-0.2,0-0.3-0.1s-0.1-0.2,0-0.3c0.4-0.6,0.6-1.2,0.9-1.8c0.2-0.6,0.4-1.2,0.8-1.9
		c0.4-0.6-0.3-3.2-0.9-4.6c-0.6,3.1-4.5,6.6-4.7,6.7c-0.1,0.1-0.2,0.1-0.3,0s-0.1-0.2,0-0.3c0,0,2.6-3.3,3.3-5.6
		c-3.6,5.8-6.3,6-7.2,5.9l0,0c0,0.3,0,0.7,0,1.1c0,3.2,0,8.4-1.6,19l0,0c1.1-0.4,5.4-3.2,7.8-7.8c0.3-0.6,0.8-1.4,1.3-2.1
		c1.1-1.6,2.2-3.4,2.5-5c0-0.3,0.1-0.7,0.2-1.1c0.2-1.3,0.6-3.4,0.3-4.6C61.8,30.1,61.1,31.2,60,31.7z"/>
	<path class="st0" d="M57.6,44.8c-0.5,0.5-1.2,0.9-1.8,1.4c-1,0.7-2,1.5-2.9,2.4c-1.5,1.5-2.5,1.7-2.9,1.7c0,0,0,0-0.1,0l-1.6,7.9
		c1-1,2.1-1.4,3.3-1.9c0.5-0.2,0.9-0.4,1.4-0.6c2.5-1.9,5.6-5,8.3-9.7c1-1.7,1.2-5.8,0.8-8.4C61.6,39.1,60.4,42.5,57.6,44.8z"/>
	<path class="st0" d="M32.4,59.1c-0.5-0.6-0.9-1.1-1.1-2.5c-0.8,3.3-0.4,9.2-0.4,9.2c0.5,5.2,4.2,7.5,6.8,8.1
		c0.2-0.2,0.4-0.5,0.5-0.7c0.4-0.9,1.9-0.7,2.8-0.5c1-2.5,2.1-5.6,2.4-6.5c-1.5,0-7.8-0.3-9.1-3.9C33.5,60.4,32.9,59.7,32.4,59.1z"
		/>
	<path class="st0" d="M39.6,63.3c0.3,0.2,0.5,0.3,0.7,0.5c0.8,0.9,2.8,1.4,3.4,1.5c0.2-0.5,0.7-2.1,1.4-4.4c0-0.1,0-0.4-0.2-0.6
		c-0.4-0.7-1.4-1.5-2-1.7c-3-0.9-3.5-1.8-3.8-3.3c-0.5-0.8-0.8-1.8-0.9-2.8c-0.1-0.6-0.2-1.1-0.4-1.6c-0.1-0.1-0.3-0.1-0.5-0.2
		c-0.6-0.1-1.4-0.3-2.8-2.1C35.2,60.8,38.1,62.5,39.6,63.3z"/>
	<path class="st0" d="M42.1,17.3c0.5,0.2,1.1,0.5,1.5,1.1c0.1,0.1,0.1,0.2,0,0.3c-0.1,0.1-0.2,0.1-0.3,0.1c-0.2-0.1-0.5-0.1-0.9-0.2
		c-0.7-0.1-1.5-0.2-2.1-0.5c0.1,0.3,0.2,0.8,0.6,1.5c0.7,1.2,2.7,2,2.7,2c0.1,0,0.2,0.2,0.1,0.3c0,0.1-0.2,0.2-0.3,0.2
		c0,0-0.9-0.2-1.8-0.6c0.5,1.1,0.4,1.5,0.3,1.7c-0.1,0.1-0.2,0.2-0.4,0.2c-0.3,0-0.5-0.1-0.7-0.3c0,0-0.1-0.1-0.2-0.1l0.2,1.6
		c0.5,0.2,2.3,1,4.4,3.6c1.9,2.4,4.1,2.1,4.7,2c0.2-2.3,0-7,0-8.2c-1.2,0.2-3.1-1.2-5-2.8c-1.1-0.8-2.1-1.7-3-2.7
		c-0.8-0.8-1.6-1.5-2.1-1.8C40.4,16.4,41.2,16.8,42.1,17.3z"/>
</g>
</svg>
