<?xml version="1.0" encoding="utf-8"?>
<!-- Generator: Adobe Illustrator 21.0.0, SVG Export Plug-In . SVG Version: 6.00 Build 0)  -->
<svg version="1.1" id="Layer_1" xmlns="http://www.w3.org/2000/svg" xmlns:xlink="http://www.w3.org/1999/xlink" x="0px" y="0px"
	 viewBox="0 0 100 100" style="enable-background:new 0 0 100 100;" xml:space="preserve">
<style type="text/css">
	.st0{fill:#F49632;}
</style>
<g>
	<path class="st0" d="M41.3,26.9L40.2,3.4c0,0,0-3.4-0.8-3.4c-0.9,0-0.9,3.4-0.9,3.4v21.7l0,0c0,0,0,1.1-1.4,1.1s-1.4-1.1-1.4-1.1
		l0,0L35.2,3.4l0,0c0-0.1,0.1-3.4-0.8-3.4c-0.9,0-0.9,3.4-0.9,3.4L33,25.2l0,0c0,0,0,1-1.4,1.1c-1.4,0-1.4-1.1-1.4-1.1l0,0L29.7,3.4
		c0,0,0.1-3.4-0.9-3.4C27.9,0,28,3.3,28,3.4l0,0l-0.5,21.7l0,0c0,0,0,1.1-1.4,1.1s-1.4-1.1-1.4-1.1l0,0V3.4c0,0,0-3.4-0.9-3.4
		C23,0,23,3.4,23,3.4l-1,23.5c0,0-0.9,7.1,4,11.2c0,0,2.1,1.7,2.6,2.4c0,0,1.6,1.6,1.6,8.9S27,95.3,27,95.3s0.2,4.2,4.7,4.7
		c4.5-0.5,4.7-4.7,4.7-4.7s-3.2-38.5-3.2-45.9c0-7.3,1.6-8.9,1.6-8.9c0.5-0.7,2.6-2.4,2.6-2.4C42.2,34,41.3,26.9,41.3,26.9z
		 M34.8,94.1c0,0-0.1,4.2-3.2,4.7c-3.1-0.5-3.2-4.7-3.2-4.7s2.8-41.8,2.8-49.1H32C32,52.3,34.8,94.1,34.8,94.1z"/>
	<path class="st0" d="M73.6,22.4C72.6,12.2,68,3.8,61.1,3.8s-11.5,8.4-12.5,18.7c-1,10.9,3.8,17.4,9.6,18.9c0.4,0.6,1.4,2.2,1.4,8.1
		c0,7.3-3.2,45.9-3.2,45.9s0.2,4.2,4.7,4.7c4.5-0.5,4.7-4.7,4.7-4.7s-3.2-38.5-3.2-45.9c0-6,1-7.5,1.4-8.1
		C69.8,39.9,74.7,33.3,73.6,22.4z M64.3,94.1c0,0-0.1,4.2-3.2,4.7c-3.1-0.5-3.2-4.7-3.2-4.7s2.8-41.8,2.8-49.1h0.8
		C61.5,52.3,64.3,94.1,64.3,94.1z"/>
</g>
</svg>
