<?xml version="1.0" encoding="utf-8"?>
<!-- Generator: Adobe Illustrator 21.0.0, SVG Export Plug-In . SVG Version: 6.00 Build 0)  -->
<svg version="1.1" id="Layer_1" xmlns="http://www.w3.org/2000/svg" xmlns:xlink="http://www.w3.org/1999/xlink" x="0px" y="0px"
	 viewBox="0 0 50 50" style="enable-background:new 0 0 50 50;" xml:space="preserve">
<style type="text/css">
	.st0{fill:#FFFFFF;}
</style>
<g>
	<path class="st0" d="M25,50C11.2,50,0,38.8,0,25C0,11.2,11.2,0,25,0c13.8,0,25,11.2,25,25C50,38.8,38.8,50,25,50L25,50z M25,1.3
		C11.9,1.3,1.3,11.9,1.3,25c0,13.1,10.6,23.7,23.7,23.7c13.1,0,23.7-10.6,23.7-23.7C48.7,11.9,38.1,1.3,25,1.3L25,1.3z"/>
	<path class="st0" d="M25,2.4C12.5,2.4,2.4,12.5,2.4,25c0,12.5,10.1,22.6,22.6,22.6c12.5,0,22.6-10.1,22.6-22.6
		C47.6,12.5,37.5,2.4,25,2.4z M25,47.1C12.8,47.1,2.9,37.2,2.9,25C2.9,12.8,12.8,2.9,25,2.9c12.2,0,22.1,9.9,22.1,22.1
		C47.1,37.2,37.2,47.1,25,47.1z"/>
	<path class="st0" d="M25,43.8c0,0,0-2.3,2.6-2.3c0,0-2.6,0-2.6-2.3c0,0,0,2.3-2.6,2.3C22.4,41.4,25,41.4,25,43.8z"/>
	<path class="st0" d="M25,6.2c0,0,0,2.3-2.6,2.3c0,0,2.6,0,2.6,2.3c0,0,0-2.3,2.6-2.3C27.6,8.6,25,8.6,25,6.2z"/>
	<path class="st0" d="M11.1,28.3H15c0,0,0.3,0,0.3-0.3c0,0,0-0.8,1.3-0.8c-1.3,0-1.3-0.8-1.3-0.8c0,0,0-0.3-0.3-0.3h-4.4
		c0,0-0.8,0-0.8-1.3c0,1.3-0.8,1.3-0.8,1.3c-0.3,0-0.3,0.3-0.3,0.3v3.9c0,0,0,0.8-1.3,0.8c1.3,0,1.3,0.8,1.3,0.8l0,3.9
		c0,0.3,0.3,0.3,0.3,0.3c0,0,0.8,0,0.8,1.3c0-1.3,0.8-1.3,0.8-1.3s0.3,0,0.3-0.3v-3.6c0-0.3,0.3-0.3,0.3-0.3l2.8,0
		c0.2,0,0.3-0.1,0.3-0.2c0,0,0,0,0-0.1c0.1-0.2,0.5-0.5,1.2-0.5c-0.8,0-1.1-0.3-1.2-0.5c0,0,0,0,0-0.1c0-0.1-0.1-0.2-0.3-0.2h-2.8
		c0,0-0.3,0-0.3-0.3l0-1.5C10.9,28.3,11.1,28.3,11.1,28.3z"/>
	<path class="st0" d="M27.3,16h3.9c0,0,0.3,0,0.3-0.3c0,0,0-0.8,1.3-0.8c-1.3,0-1.3-0.8-1.3-0.8c0,0,0-0.3-0.3-0.3h-4.4
		c0,0-0.8,0-0.8-1.3c0,1.3-0.8,1.3-0.8,1.3c-0.3,0-0.3,0.3-0.3,0.3v3.9c0,0,0,0.8-1.3,0.8c1.3,0,1.3,0.8,1.3,0.8l0,3.9
		c0,0.3,0.3,0.3,0.3,0.3c0,0,0.8,0,0.8,1.3c0-1.3,0.8-1.3,0.8-1.3h4.4c0,0,0.3,0,0.3-0.3c0,0,0-0.8,1.3-0.8c-1.3,0-1.3-0.8-1.3-0.8
		c0-0.3-0.3-0.3-0.3-0.3h-3.9c-0.3,0-0.3-0.3-0.3-0.3v-1.5c0-0.3,0.3-0.3,0.3-0.3h2.8c0.2,0,0.3-0.1,0.3-0.2c0,0,0,0,0-0.1
		c0.1-0.2,0.5-0.5,1.2-0.5c-0.8,0-1.1-0.3-1.2-0.5c0,0,0,0,0-0.1c0-0.1-0.1-0.2-0.3-0.2h-2.8c0,0-0.3,0-0.3-0.3v-1.5
		C27,16,27.3,16,27.3,16z"/>
	<path class="st0" d="M36.6,28.3l3.9,0c0,0,0.3,0,0.3-0.3c0,0,0-0.8,1.3-0.8c-1.3,0-1.3-0.8-1.3-0.8c0,0,0-0.3-0.3-0.3l-4.4,0
		c0,0-0.8,0-0.8-1.3c0,1.3-0.8,1.3-0.8,1.3c-0.3,0-0.3,0.3-0.3,0.3v3.9c0,0,0,0.8-1.3,0.8c1.3,0,1.3,0.8,1.3,0.8v3.9
		c0,0.3,0.3,0.3,0.3,0.3s0.8,0,0.8,1.3c0-1.3,0.8-1.3,0.8-1.3h4.4c0,0,0.3,0,0.3-0.3c0,0,0-0.8,1.3-0.8c-1.3,0-1.3-0.8-1.3-0.8
		c0-0.3-0.3-0.3-0.3-0.3h-3.9c-0.3,0-0.3-0.3-0.3-0.3v-1.5c0-0.3,0.3-0.3,0.3-0.3h2.8c0.2,0,0.3-0.1,0.3-0.2c0,0,0,0,0-0.1
		c0.1-0.2,0.4-0.5,1.2-0.5c-0.8,0-1.1-0.3-1.2-0.5c0,0,0,0,0-0.1c0-0.1-0.1-0.2-0.3-0.2h-2.8c0,0-0.3,0-0.3-0.3v-1.5
		C36.3,28.3,36.6,28.3,36.6,28.3z"/>
	<path class="st0" d="M28.3,28.3h3.9c0,0,0.3,0,0.3-0.3c0,0,0-0.8,1.3-0.8c-1.3,0-1.3-0.8-1.3-0.8c0,0,0-0.3-0.3-0.3l-4.4,0
		c0,0-0.8,0-0.8-1.3c0,1.3-0.8,1.3-0.8,1.3c-0.3,0-0.3,0.3-0.3,0.3l0,3.9c0,0,0,0.8-1.3,0.8c1.3,0,1.3,0.8,1.3,0.8v3.9
		c0,0.3,0.3,0.3,0.3,0.3s0.8,0,0.8,1.3c0-1.3,0.8-1.3,0.8-1.3l4.4,0c0,0,0.3,0,0.3-0.3c0,0,0-0.8,1.3-0.8c-1.3,0-1.3-0.8-1.3-0.8
		c0-0.3-0.3-0.3-0.3-0.3h-3.9c-0.3,0-0.3-0.3-0.3-0.3l0-1.5c0-0.3,0.3-0.3,0.3-0.3l2.8,0c0.2,0,0.3-0.1,0.3-0.2c0,0,0,0,0-0.1
		c0.1-0.2,0.4-0.5,1.2-0.5c-0.8,0-1.1-0.3-1.2-0.5c0,0,0,0,0-0.1c0-0.1-0.1-0.2-0.3-0.2h-2.8c0,0-0.3,0-0.3-0.3v-1.5
		C28.1,28.3,28.3,28.3,28.3,28.3z"/>
	<path class="st0" d="M17.3,36.1c0,0,0.8,0,0.8,1.3c0-1.3,0.8-1.3,0.8-1.3c0,0,0.3,0,0.3-0.3l0-2.8c0,0,0-0.3,0.3-0.3l1,0
		c0,0,0.3,0,0.4,0.3l1.7,2.8c0.1,0.3,0.3,0.3,0.3,0.3s0.8,0,0.8,1.3c0-1,0.4-1.2,0.6-1.3c0,0,0.2,0,0.2,0c0.3,0,0.1-0.3,0.1-0.3
		l-1.9-3.1c-0.1-0.2,0-0.3,0-0.3c1.7-0.3,1.7-1.5,1.7-1.5v-0.8c0,0,0-0.8,1.3-0.8c-1.3,0-1.3-0.8-1.3-0.8v-0.8c0,0,0-1.5-2.8-1.5
		h-0.5c-0.8,0-0.8-1.3-0.8-1.3c0,1.3-0.8,1.3-0.8,1.3s-2.1,0-2.1,0c-0.3,0-0.3,0.3-0.3,0.3v3.9c0,0,0,0.8-1.3,0.8
		c1.3,0,1.3,0.8,1.3,0.8v3.9C17,36.1,17.3,36.1,17.3,36.1z M19.1,28.1c0,0,0-0.3,0.3-0.3l1.3,0c1.5,0,1.5,0.8,1.5,0.8s0,0.8,1,0.8
		c-1,0-1,0.8-1,0.8c0,1-1.5,1-1.5,1l-1.3,0c0,0-0.3,0-0.3-0.3L19.1,28.1z"/>
	<path class="st0" d="M40.9,18.1v-3.9c0-0.3-0.3-0.3-0.3-0.3c0,0-0.8,0-0.8-1.3c0,1.3-0.8,1.3-0.8,1.3s-0.3,0-0.3,0.3v5.7
		c0,0,0,0.2-0.2,0l-3.4-5.7c0,0-0.1-0.3-0.3-0.3c0,0-0.1,0-0.3-0.1c-0.2-0.1-0.5-0.2-0.5-1.2c0,1.3-0.8,1.3-0.8,1.3
		c-0.3,0-0.3,0.3-0.3,0.3v3.9c0,0,0,0.8-1.3,0.8c1.3,0,1.3,0.8,1.3,0.8v3.9c0,0.3,0.3,0.3,0.3,0.3c0,0,0.8,0,0.8,1.3
		c0-1.3,0.8-1.3,0.8-1.3s0.3,0,0.3-0.3v-5.7c0,0,0-0.3,0.2,0l3.4,5.7c0,0,0.1,0.3,0.3,0.3c0,0,0.1,0,0.3,0.1
		c0.2,0.1,0.5,0.6,0.5,1.2c0-1.3,0.8-1.3,0.8-1.3c0.3,0,0.3-0.3,0.3-0.3l0-3.9c0,0,0-0.8,1.3-0.8C40.9,18.8,40.9,18.1,40.9,18.1z"/>
	<path class="st0" d="M16.7,23.7c0,0,0.2,0,0.2,0c0.2,0.1,0.6,0.2,0.6,1.3c0-1.3,0.8-1.3,0.8-1.3s0.1,0,0.3-0.3l1.7-3
		c0,0,0.1-0.1,0.2,0l1.7,3c0.1,0.3,0.3,0.3,0.3,0.3c0,0,0.8,0,0.8,1.3c0-1,0.4-1.2,0.6-1.3c0,0,0.2,0,0.2,0c0.3,0,0.1-0.3,0.1-0.3
		l-2.5-4.1c0,0,0-0.6,1.3-0.6c-1.3,0-1.3-0.6-1.3-0.6l2.5-4.1c0,0,0.1-0.2-0.1-0.3c0,0-0.2,0-0.2,0c-0.2-0.1-0.6,0-0.6-1.3
		c0,1.3-0.8,1.3-0.8,1.3c0,0-0.1,0-0.3,0.3l-1.7,3c-0.1,0.1-0.2,0-0.2,0l-1.7-3c-0.1-0.3-0.3-0.3-0.3-0.3c0,0-0.8,0-0.8-1.3
		c0,1.3-0.4,1.2-0.6,1.3c0,0-0.2,0-0.2,0c-0.3,0-0.1,0.3-0.1,0.3l2.5,4.1c0,0,0,0.6-1.3,0.6c1.3,0,1.3,0.6,1.3,0.6l-2.5,4.1
		C16.5,23.5,16.4,23.7,16.7,23.7z"/>
	<path class="st0" d="M8.8,15.5v2.6c0,0,0,0.8-1.3,0.8c1.3,0,1.3,0.8,1.3,0.8v2.6c0,0,0,1.5,2.8,1.5l0,0c0,0,0.8,0,0.8,1.3
		c0-1.3,0.7-1.3,0.8-1.3l0,0c2.8,0,2.8-1.5,2.8-1.5v-2.6c0,0,0-0.8,1.3-0.8c-1.3,0-1.3-0.8-1.3-0.8v-2.6c0,0,0-1.5-2.8-1.5
		c-0.8,0-0.8-1.3-0.8-1.3c0,1.3-0.8,1.3-0.8,1.3C8.8,13.9,8.8,15.5,8.8,15.5z M10.9,18.1v-1.5c0,0,0-1.3,1.5-1.3
		c1.5,0,1.5,1.3,1.5,1.3v1.5c0,0,0,0.8,1,0.8c-1,0-1,0.8-1,0.8v1.5c0,1.3-1.5,1.3-1.5,1.3s-1.5,0-1.5-1.3l0-1.5c0,0,0-0.8-1-0.8
		C10.9,18.8,10.9,18.1,10.9,18.1z"/>
</g>
</svg>
